<!DOCTYPE svg PUBLIC "-//W3C//DTD SVG 1.1//EN" "http://www.w3.org/Graphics/SVG/1.1/DTD/svg11.dtd">
<!-- Uploaded to: SVG Repo, www.svgrepo.com, Transformed by: SVG Repo Mixer Tools -->
<svg fill="#800020" version="1.1" id="Capa_1" xmlns="http://www.w3.org/2000/svg" xmlns:xlink="http://www.w3.org/1999/xlink" width="800px" height="800px" viewBox="0 0 194.522 194.522" xml:space="preserve">
<g id="SVGRepo_bgCarrier" stroke-width="0"/>
<g id="SVGRepo_tracerCarrier" stroke-linecap="round" stroke-linejoin="round"/>
<g id="SVGRepo_iconCarrier"> <g> <path d="M179.139,166.578c-0.069-0.114-0.151-0.198-0.225-0.301c1.326-2.505,0.207-6.356-3.488-6.328 c-3.42,0.026-6.847,0.127-10.276,0.244c-1.774-13.986-0.508-34.594-1.002-45.96c-0.525-12.125-1.05-24.298-2.01-36.397 c-0.261-3.282,0.002-7.694-0.886-11.345c1.286-0.086,2.571-0.154,3.857-0.249c4.29-0.315,7.282-5.611,3.704-8.943 c-19.788-18.431-39.981-36.418-59.74-54.881c-1.38-1.289-3.384-1.723-5.13-1.185c-1.442-1.167-3.454-1.687-5.565-0.746 c-14.459,6.447-27.386,19.44-39.726,29.118c-8.162,6.401-16.369,12.74-24.571,19.089c-3.265,2.528-7.84,5.031-11.138,8.103 c-0.684-0.005-1.389,0.114-2.1,0.549c-0.34,0.14-0.68,0.28-1.021,0.42c-3.12,0.792-4.368,4.43-2.901,7.13 c2.604,4.792,7.318,3.553,12.361,3.703c0.568,0.017,1.137,0.021,1.705,0.037c-1.358,18.23-1.543,36.587-1.723,54.859 c-0.118,11.949-1.332,24.919-0.108,37.095c-4.312-0.127-8.639-0.16-13.052-0.395c-2.273-0.121-3.82,1.902-3.967,3.967 c-0.644,8.989,0.034,17.435,1.132,26.363c0.243,1.978,1.633,4.214,3.981,3.98c43.123-4.277,86.371-1.181,129.569-1.37 C162.914,193.066,192.845,189.268,179.139,166.578z M74.775,69.299c3.459,0.013,6.916-0.039,10.374-0.054 c3.235,31.327,0.919,62.366,0.159,93.735c-2.43-0.111-4.862-0.186-7.286-0.375c-7.104-0.56-14.613-1.513-22.172-2.121 c0.332-13.82,2.542-28.062,2.042-41.913c-0.551-15.273,0.185-34.371-4.38-49.567C60.6,69.113,67.687,69.272,74.775,69.299z M141.2,161.424c-8.847,0.557-17.7,1.137-26.544,1.511c-0.574-15.904-0.775-32.02-1.848-47.997 c1.3-11.59-0.037-23.099-0.726-34.642c0.189-3.837,0.334-7.675,0.366-11.514c8.811-0.24,17.617-0.559,26.421-0.986 c-1.868,24.383,2.866,49.111,3.181,73.612C142.106,145.822,141.049,153.992,141.2,161.424z"/> </g> </g>
</svg>